<?xml version="1.0" standalone="no"?>
<!DOCTYPE svg PUBLIC "-//W3C//DTD SVG 20010904//EN"
 "http://www.w3.org/TR/2001/REC-SVG-20010904/DTD/svg10.dtd">
<svg version="1.0" xmlns="http://www.w3.org/2000/svg"
 width="1242.000000pt" height="1242.000000pt" viewBox="0 0 1242.000000 1242.000000"
 preserveAspectRatio="xMidYMid meet">
<metadata>
Created by potrace 1.14, written by Peter Selinger 2001-2017
</metadata>
<g transform="translate(0.000000,1242.000000) scale(0.100000,-0.100000)"
fill="#000000" stroke="none">
<path d="M0 6210 l0 -6210 6210 0 6210 0 0 6210 0 6210 -6210 0 -6210 0 0
-6210z m4505 927 c310 -73 499 -210 612 -444 27 -57 54 -136 70 -205 24 -100
27 -134 27 -288 0 -154 -3 -188 -27 -288 -63 -268 -197 -447 -423 -560 -154
-77 -322 -112 -542 -112 -158 0 -266 13 -379 46 -323 94 -512 295 -591 629
-22 96 -26 132 -26 285 0 153 4 189 26 286 52 219 145 371 303 491 99 75 298
152 450 172 96 13 426 5 500 -12z m6035 8 c367 -56 618 -285 666 -610 8 -49
14 -107 14 -127 l0 -38 -284 0 -283 0 -6 62 c-8 89 -57 181 -120 224 -63 44
-104 54 -212 54 -74 0 -99 -4 -141 -24 -96 -45 -161 -135 -184 -256 -14 -71
-13 -396 1 -462 26 -122 91 -211 189 -256 46 -22 69 -26 145 -25 105 0 156 12
213 51 75 50 132 157 132 249 l0 33 275 0 275 0 0 -37 c0 -74 -29 -229 -55
-291 -86 -212 -255 -350 -510 -417 -133 -36 -397 -46 -550 -22 -323 52 -547
213 -650 470 -59 147 -79 265 -79 477 -1 211 19 328 79 478 102 252 330 418
643 466 117 19 326 19 442 1z m-7520 -250 l0 -235 -300 0 -300 0 0 -690 0
-690 -300 0 -300 0 0 690 0 690 -305 0 -306 0 1 229 c1 126 4 232 7 235 4 3
411 6 905 6 l898 0 0 -235z m3698 219 c117 -24 195 -66 283 -154 132 -130 187
-287 177 -500 -14 -282 -172 -492 -424 -561 -69 -19 -108 -22 -319 -24 -132
-1 -252 -3 -267 -4 l-28 -1 0 -295 0 -295 -295 0 -295 0 0 925 0 925 545 0
c458 0 558 -3 623 -16z m2382 -209 l0 -225 -500 0 -500 0 0 -125 0 -125 430 0
430 0 0 -215 0 -215 -430 0 -430 0 0 -140 0 -140 510 0 510 0 0 -220 0 -220
-810 0 -810 0 0 925 0 925 800 0 800 0 0 -225z"/>
<path d="M4142 6709 c-156 -20 -279 -147 -303 -313 -11 -79 -11 -313 0 -392
25 -173 143 -291 315 -314 227 -32 400 84 445 298 14 69 14 356 0 424 -23 109
-100 217 -185 261 -66 34 -176 49 -272 36z"/>
<path d="M6140 6501 l0 -191 152 0 c182 0 224 13 261 84 30 58 30 156 -2 212
-40 71 -63 79 -248 82 l-163 4 0 -191z"/>
</g>
</svg>
